STARTFONT 2.1
FONT -Misc-Fixed-Medium-R-SemiCondensed--12-110-75-75-C-60-437-0
SIZE 12 75 75
FONTBOUNDINGBOX 6 12 0 -2
COMMENT "Generated by fontforge, http://fontforge.sourceforge.net"
STARTPROPERTIES 22
FONTNAME_REGISTRY ""
FOUNDRY "Misc"
FAMILY_NAME "Fixed"
WEIGHT_NAME "Medium"
SLANT "R"
SETWIDTH_NAME "SemiCondensed"
ADD_STYLE_NAME ""
PIXEL_SIZE 12
POINT_SIZE 120
RESOLUTION_X 75
RESOLUTION_Y 75
SPACING "C"
AVERAGE_WIDTH 60
CHARSET_REGISTRY "437"
CHARSET_ENCODING "0"
COPYRIGHT "Public domain terminal emulator font.  Share and enjoy."
_XMBDFED_INFO "Edited with xmbdfed 4.5."
CAP_HEIGHT 7
X_HEIGHT 5
WEIGHT 10
RESOLUTION 103
QUAD_WIDTH 6
ENDPROPERTIES
CHARS 255
STARTCHAR char0
ENCODING -1
SWIDTH 480 0
DWIDTH 6 0
BBX 5 7 0 0
BITMAP
A8
00
88
00
88
00
A8
ENDCHAR
STARTCHAR uni0001
ENCODING -1
SWIDTH 1000 0
DWIDTH 6 0
BBX 5 9 0 -1
BITMAP
70
88
D8
D8
88
D8
A8
88
70
ENDCHAR
STARTCHAR uni0002
ENCODING -1
SWIDTH 1000 0
DWIDTH 6 0
BBX 5 9 0 -1
BITMAP
70
F8
A8
A8
F8
A8
D8
F8
70
ENDCHAR
STARTCHAR uni0003
ENCODING -1
SWIDTH 1000 0
DWIDTH 6 0
BBX 5 8 0 0
BITMAP
50
F8
F8
F8
F8
70
70
20
ENDCHAR
STARTCHAR uni0004
ENCODING -1
SWIDTH 1000 0
DWIDTH 6 0
BBX 5 8 0 0
BITMAP
20
70
70
F8
F8
70
70
20
ENDCHAR
STARTCHAR uni0005
ENCODING -1
SWIDTH 1000 0
DWIDTH 6 0
BBX 5 8 0 0
BITMAP
70
70
A8
F8
F8
A8
20
70
ENDCHAR
STARTCHAR uni0006
ENCODING -1
SWIDTH 1000 0
DWIDTH 6 0
BBX 5 8 0 0
BITMAP
20
20
70
70
F8
F8
20
70
ENDCHAR
STARTCHAR uni0007
ENCODING -1
SWIDTH 1000 0
DWIDTH 6 0
BBX 4 4 1 2
BITMAP
60
F0
F0
60
ENDCHAR
STARTCHAR uni0008
ENCODING -1
SWIDTH 1000 0
DWIDTH 6 0
BBX 6 12 0 -2
BITMAP
FC
FC
FC
FC
CC
84
84
CC
FC
FC
FC
FC
ENDCHAR
STARTCHAR uni0009
ENCODING -1
SWIDTH 1000 0
DWIDTH 6 0
BBX 6 6 0 0
BITMAP
30
48
84
84
48
30
ENDCHAR
STARTCHAR uni000A
ENCODING -1
SWIDTH 1000 0
DWIDTH 6 0
BBX 6 12 0 -2
BITMAP
FC
FC
FC
CC
B4
78
78
B4
CC
FC
FC
FC
ENDCHAR
STARTCHAR uni000B
ENCODING -1
SWIDTH 1000 0
DWIDTH 6 0
BBX 6 7 0 0
BITMAP
1C
0C
74
88
88
88
70
ENDCHAR
STARTCHAR uni000C
ENCODING -1
SWIDTH 1000 0
DWIDTH 6 0
BBX 5 8 0 -2
BITMAP
70
88
88
88
70
20
70
20
ENDCHAR
STARTCHAR uni000D
ENCODING -1
SWIDTH 1000 0
DWIDTH 6 0
BBX 5 7 0 0
BITMAP
20
30
28
20
20
E0
C0
ENDCHAR
STARTCHAR uni000E
ENCODING -1
SWIDTH 1000 0
DWIDTH 6 0
BBX 5 8 0 0
BITMAP
60
58
48
48
48
C8
D8
18
ENDCHAR
STARTCHAR uni000F
ENCODING -1
SWIDTH 1000 0
DWIDTH 6 0
BBX 5 9 0 -1
BITMAP
20
20
88
20
50
20
88
20
20
ENDCHAR
STARTCHAR uni0010
ENCODING -1
SWIDTH 1000 0
DWIDTH 6 0
BBX 6 5 0 1
BITMAP
C0
F0
FC
F0
C0
ENDCHAR
STARTCHAR uni0011
ENCODING -1
SWIDTH 1000 0
DWIDTH 6 0
BBX 6 5 0 1
BITMAP
0C
3C
FC
3C
0C
ENDCHAR
STARTCHAR uni0012
ENCODING -1
SWIDTH 1000 0
DWIDTH 6 0
BBX 5 7 0 0
BITMAP
20
70
A8
20
A8
70
20
ENDCHAR
STARTCHAR uni0013
ENCODING -1
SWIDTH 1000 0
DWIDTH 6 0
BBX 3 7 1 0
BITMAP
A0
A0
A0
A0
A0
00
A0
ENDCHAR
STARTCHAR uni0014
ENCODING -1
SWIDTH 1000 0
DWIDTH 6 0
BBX 5 8 0 0
BITMAP
78
E8
E8
E8
68
28
28
28
ENDCHAR
STARTCHAR uni0015
ENCODING -1
SWIDTH 1000 0
DWIDTH 6 0
BBX 4 8 1 0
BITMAP
70
80
60
90
90
60
10
E0
ENDCHAR
STARTCHAR uni0016
ENCODING -1
SWIDTH 1000 0
DWIDTH 6 0
BBX 6 5 0 1
BITMAP
FC
FC
FC
FC
FC
ENDCHAR
STARTCHAR uni0017
ENCODING -1
SWIDTH 1000 0
DWIDTH 6 0
BBX 5 7 0 0
BITMAP
20
70
A8
20
A8
70
F8
ENDCHAR
STARTCHAR uni0018
ENCODING -1
SWIDTH 1000 0
DWIDTH 6 0
BBX 5 7 0 0
BITMAP
20
70
A8
20
20
20
20
ENDCHAR
STARTCHAR uni0019
ENCODING -1
SWIDTH 1000 0
DWIDTH 6 0
BBX 5 7 0 0
BITMAP
20
20
20
20
A8
70
20
ENDCHAR
STARTCHAR uni001A
ENCODING -1
SWIDTH 1000 0
DWIDTH 6 0
BBX 5 5 0 1
BITMAP
20
10
F8
10
20
ENDCHAR
STARTCHAR uni001B
ENCODING -1
SWIDTH 1000 0
DWIDTH 6 0
BBX 5 5 0 1
BITMAP
20
40
F8
40
20
ENDCHAR
STARTCHAR uni001C
ENCODING -1
SWIDTH 1000 0
DWIDTH 6 0
BBX 5 5 0 0
BITMAP
80
80
80
80
F8
ENDCHAR
STARTCHAR uni001D
ENCODING -1
SWIDTH 1000 0
DWIDTH 6 0
BBX 5 3 0 2
BITMAP
50
F8
50
ENDCHAR
STARTCHAR uni001E
ENCODING -1
SWIDTH 1000 0
DWIDTH 6 0
BBX 5 7 0 0
BITMAP
20
20
70
70
F8
F8
F8
ENDCHAR
STARTCHAR uni001F
ENCODING -1
SWIDTH 1000 0
DWIDTH 6 0
BBX 5 7 0 0
BITMAP
F8
F8
F8
70
70
20
20
ENDCHAR
STARTCHAR space
ENCODING -1
SWIDTH 480 0
DWIDTH 6 0
BBX 1 1 5 -2
BITMAP
00
ENDCHAR
STARTCHAR exclam
ENCODING -1
SWIDTH 480 0
DWIDTH 6 0
BBX 1 7 2 0
BITMAP
80
80
80
80
80
00
80
ENDCHAR
STARTCHAR quotedbl
ENCODING -1
SWIDTH 480 0
DWIDTH 6 0
BBX 3 3 1 5
BITMAP
A0
A0
A0
ENDCHAR
STARTCHAR numbersign
ENCODING -1
SWIDTH 480 0
DWIDTH 6 0
BBX 5 6 0 0
BITMAP
50
F8
50
50
F8
50
ENDCHAR
STARTCHAR dollar
ENCODING -1
SWIDTH 480 0
DWIDTH 6 0
BBX 5 9 0 -1
BITMAP
20
70
A8
A0
70
28
A8
70
20
ENDCHAR
STARTCHAR percent
ENCODING -1
SWIDTH 480 0
DWIDTH 6 0
BBX 5 7 0 0
BITMAP
C8
C8
10
20
40
98
98
ENDCHAR
STARTCHAR ampersand
ENCODING -1
SWIDTH 480 0
DWIDTH 6 0
BBX 5 7 0 0
BITMAP
40
A0
A0
40
A8
90
68
ENDCHAR
STARTCHAR quotesingle
ENCODING -1
SWIDTH 480 0
DWIDTH 6 0
BBX 1 3 2 5
BITMAP
80
80
80
ENDCHAR
STARTCHAR parenleft
ENCODING -1
SWIDTH 480 0
DWIDTH 6 0
BBX 3 9 1 -1
BITMAP
20
40
40
80
80
80
40
40
20
ENDCHAR
STARTCHAR parenright
ENCODING -1
SWIDTH 480 0
DWIDTH 6 0
BBX 3 9 1 -1
BITMAP
80
40
40
20
20
20
40
40
80
ENDCHAR
STARTCHAR asterisk
ENCODING -1
SWIDTH 480 0
DWIDTH 6 0
BBX 5 7 0 0
BITMAP
20
A8
70
20
70
A8
20
ENDCHAR
STARTCHAR plus
ENCODING -1
SWIDTH 480 0
DWIDTH 6 0
BBX 5 5 0 1
BITMAP
20
20
F8
20
20
ENDCHAR
STARTCHAR comma
ENCODING -1
SWIDTH 480 0
DWIDTH 6 0
BBX 3 3 0 -1
BITMAP
60
60
C0
ENDCHAR
STARTCHAR hyphen
ENCODING -1
SWIDTH 480 0
DWIDTH 6 0
BBX 3 1 1 3
BITMAP
E0
ENDCHAR
STARTCHAR period
ENCODING -1
SWIDTH 480 0
DWIDTH 6 0
BBX 2 2 1 0
BITMAP
C0
C0
ENDCHAR
STARTCHAR slash
ENCODING -1
SWIDTH 480 0
DWIDTH 6 0
BBX 5 7 0 0
BITMAP
08
10
10
20
40
40
80
ENDCHAR
STARTCHAR zero
ENCODING -1
SWIDTH 480 0
DWIDTH 6 0
BBX 4 7 1 0
BITMAP
60
90
90
90
90
90
60
ENDCHAR
STARTCHAR one
ENCODING -1
SWIDTH 480 0
DWIDTH 6 0
BBX 3 7 1 0
BITMAP
40
C0
40
40
40
40
E0
ENDCHAR
STARTCHAR two
ENCODING -1
SWIDTH 480 0
DWIDTH 6 0
BBX 5 7 0 0
BITMAP
70
88
08
10
20
40
F8
ENDCHAR
STARTCHAR three
ENCODING -1
SWIDTH 480 0
DWIDTH 6 0
BBX 5 7 0 0
BITMAP
F8
08
10
30
08
88
70
ENDCHAR
STARTCHAR four
ENCODING -1
SWIDTH 480 0
DWIDTH 6 0
BBX 5 7 0 0
BITMAP
10
30
50
90
F8
10
10
ENDCHAR
STARTCHAR five
ENCODING -1
SWIDTH 480 0
DWIDTH 6 0
BBX 5 7 0 0
BITMAP
F8
80
F0
08
08
88
70
ENDCHAR
STARTCHAR six
ENCODING -1
SWIDTH 480 0
DWIDTH 6 0
BBX 5 7 0 0
BITMAP
30
40
80
F0
88
88
70
ENDCHAR
STARTCHAR seven
ENCODING -1
SWIDTH 480 0
DWIDTH 6 0
BBX 5 7 0 0
BITMAP
F8
08
10
10
20
20
20
ENDCHAR
STARTCHAR eight
ENCODING -1
SWIDTH 480 0
DWIDTH 6 0
BBX 5 7 0 0
BITMAP
70
88
88
70
88
88
70
ENDCHAR
STARTCHAR nine
ENCODING -1
SWIDTH 480 0
DWIDTH 6 0
BBX 5 7 0 0
BITMAP
70
88
88
78
08
10
60
ENDCHAR
STARTCHAR colon
ENCODING -1
SWIDTH 480 0
DWIDTH 6 0
BBX 2 5 1 0
BITMAP
C0
C0
00
C0
C0
ENDCHAR
STARTCHAR semicolon
ENCODING -1
SWIDTH 480 0
DWIDTH 6 0
BBX 3 6 0 -1
BITMAP
60
60
00
60
60
C0
ENDCHAR
STARTCHAR less
ENCODING -1
SWIDTH 480 0
DWIDTH 6 0
BBX 3 5 1 1
BITMAP
20
40
80
40
20
ENDCHAR
STARTCHAR equal
ENCODING -1
SWIDTH 480 0
DWIDTH 6 0
BBX 5 3 0 2
BITMAP
F8
00
F8
ENDCHAR
STARTCHAR greater
ENCODING -1
SWIDTH 480 0
DWIDTH 6 0
BBX 3 5 1 1
BITMAP
80
40
20
40
80
ENDCHAR
STARTCHAR question
ENCODING -1
SWIDTH 480 0
DWIDTH 6 0
BBX 5 7 0 0
BITMAP
70
88
10
20
20
00
20
ENDCHAR
STARTCHAR at
ENCODING -1
SWIDTH 480 0
DWIDTH 6 0
BBX 5 7 0 0
BITMAP
70
88
B8
A8
B8
80
70
ENDCHAR
STARTCHAR A
ENCODING -1
SWIDTH 480 0
DWIDTH 6 0
BBX 5 7 0 0
BITMAP
70
88
88
F8
88
88
88
ENDCHAR
STARTCHAR B
ENCODING -1
SWIDTH 480 0
DWIDTH 6 0
BBX 5 7 0 0
BITMAP
F0
48
48
70
48
48
F0
ENDCHAR
STARTCHAR C
ENCODING -1
SWIDTH 480 0
DWIDTH 6 0
BBX 5 7 0 0
BITMAP
70
88
80
80
80
88
70
ENDCHAR
STARTCHAR D
ENCODING -1
SWIDTH 480 0
DWIDTH 6 0
BBX 5 7 0 0
BITMAP
F0
48
48
48
48
48
F0
ENDCHAR
STARTCHAR E
ENCODING -1
SWIDTH 480 0
DWIDTH 6 0
BBX 5 7 0 0
BITMAP
F8
80
80
F0
80
80
F8
ENDCHAR
STARTCHAR F
ENCODING -1
SWIDTH 480 0
DWIDTH 6 0
BBX 5 7 0 0
BITMAP
F8
80
80
F0
80
80
80
ENDCHAR
STARTCHAR G
ENCODING -1
SWIDTH 480 0
DWIDTH 6 0
BBX 5 7 0 0
BITMAP
70
88
80
80
98
88
70
ENDCHAR
STARTCHAR H
ENCODING -1
SWIDTH 480 0
DWIDTH 6 0
BBX 5 7 0 0
BITMAP
88
88
88
F8
88
88
88
ENDCHAR
STARTCHAR I
ENCODING -1
SWIDTH 480 0
DWIDTH 6 0
BBX 3 7 1 0
BITMAP
E0
40
40
40
40
40
E0
ENDCHAR
STARTCHAR J
ENCODING -1
SWIDTH 480 0
DWIDTH 6 0
BBX 5 7 0 0
BITMAP
38
10
10
10
10
90
60
ENDCHAR
STARTCHAR K
ENCODING -1
SWIDTH 480 0
DWIDTH 6 0
BBX 5 7 0 0
BITMAP
88
90
A0
C0
A0
90
88
ENDCHAR
STARTCHAR L
ENCODING -1
SWIDTH 480 0
DWIDTH 6 0
BBX 5 7 0 0
BITMAP
80
80
80
80
80
80
F8
ENDCHAR
STARTCHAR M
ENCODING -1
SWIDTH 480 0
DWIDTH 6 0
BBX 5 7 0 0
BITMAP
88
D8
A8
88
88
88
88
ENDCHAR
STARTCHAR N
ENCODING -1
SWIDTH 480 0
DWIDTH 6 0
BBX 5 7 0 0
BITMAP
88
88
C8
A8
98
88
88
ENDCHAR
STARTCHAR O
ENCODING -1
SWIDTH 480 0
DWIDTH 6 0
BBX 5 7 0 0
BITMAP
70
88
88
88
88
88
70
ENDCHAR
STARTCHAR P
ENCODING -1
SWIDTH 480 0
DWIDTH 6 0
BBX 5 7 0 0
BITMAP
F0
88
88
F0
80
80
80
ENDCHAR
STARTCHAR Q
ENCODING -1
SWIDTH 480 0
DWIDTH 6 0
BBX 5 7 0 0
BITMAP
70
88
88
88
A8
90
68
ENDCHAR
STARTCHAR R
ENCODING -1
SWIDTH 480 0
DWIDTH 6 0
BBX 5 7 0 0
BITMAP
F0
88
88
F0
A0
90
88
ENDCHAR
STARTCHAR S
ENCODING -1
SWIDTH 480 0
DWIDTH 6 0
BBX 5 7 0 0
BITMAP
70
88
80
70
08
88
70
ENDCHAR
STARTCHAR T
ENCODING -1
SWIDTH 480 0
DWIDTH 6 0
BBX 5 7 0 0
BITMAP
F8
20
20
20
20
20
20
ENDCHAR
STARTCHAR U
ENCODING -1
SWIDTH 480 0
DWIDTH 6 0
BBX 5 7 0 0
BITMAP
88
88
88
88
88
88
70
ENDCHAR
STARTCHAR V
ENCODING -1
SWIDTH 480 0
DWIDTH 6 0
BBX 5 7 0 0
BITMAP
88
88
88
88
50
50
20
ENDCHAR
STARTCHAR W
ENCODING -1
SWIDTH 480 0
DWIDTH 6 0
BBX 5 7 0 0
BITMAP
88
88
88
88
A8
A8
50
ENDCHAR
STARTCHAR X
ENCODING -1
SWIDTH 480 0
DWIDTH 6 0
BBX 5 7 0 0
BITMAP
88
88
50
20
50
88
88
ENDCHAR
STARTCHAR Y
ENCODING -1
SWIDTH 480 0
DWIDTH 6 0
BBX 5 7 0 0
BITMAP
88
88
50
20
20
20
20
ENDCHAR
STARTCHAR Z
ENCODING -1
SWIDTH 480 0
DWIDTH 6 0
BBX 5 7 0 0
BITMAP
F8
08
10
20
40
80
F8
ENDCHAR
STARTCHAR bracketleft
ENCODING -1
SWIDTH 480 0
DWIDTH 6 0
BBX 3 9 1 -1
BITMAP
E0
80
80
80
80
80
80
80
E0
ENDCHAR
STARTCHAR backslash
ENCODING -1
SWIDTH 480 0
DWIDTH 6 0
BBX 5 7 0 0
BITMAP
80
40
40
20
10
10
08
ENDCHAR
STARTCHAR bracketright
ENCODING -1
SWIDTH 480 0
DWIDTH 6 0
BBX 3 9 1 -1
BITMAP
E0
20
20
20
20
20
20
20
E0
ENDCHAR
STARTCHAR asciicircum
ENCODING -1
SWIDTH 480 0
DWIDTH 6 0
BBX 5 3 0 5
BITMAP
20
50
88
ENDCHAR
STARTCHAR underscore
ENCODING -1
SWIDTH 480 0
DWIDTH 6 0
BBX 5 1 0 -2
BITMAP
F8
ENDCHAR
STARTCHAR grave
ENCODING -1
SWIDTH 480 0
DWIDTH 6 0
BBX 3 3 1 5
BITMAP
80
40
20
ENDCHAR
STARTCHAR a
ENCODING -1
SWIDTH 480 0
DWIDTH 6 0
BBX 5 5 0 0
BITMAP
70
08
78
88
78
ENDCHAR
STARTCHAR b
ENCODING -1
SWIDTH 480 0
DWIDTH 6 0
BBX 5 7 0 0
BITMAP
80
80
F0
88
88
88
F0
ENDCHAR
STARTCHAR c
ENCODING -1
SWIDTH 480 0
DWIDTH 6 0
BBX 5 5 0 0
BITMAP
70
88
80
88
70
ENDCHAR
STARTCHAR d
ENCODING -1
SWIDTH 480 0
DWIDTH 6 0
BBX 5 7 0 0
BITMAP
08
08
78
88
88
88
78
ENDCHAR
STARTCHAR e
ENCODING -1
SWIDTH 480 0
DWIDTH 6 0
BBX 5 5 0 0
BITMAP
70
88
F0
80
70
ENDCHAR
STARTCHAR f
ENCODING -1
SWIDTH 480 0
DWIDTH 6 0
BBX 5 7 0 0
BITMAP
30
48
40
E0
40
40
40
ENDCHAR
STARTCHAR g
ENCODING -1
SWIDTH 480 0
DWIDTH 6 0
BBX 5 7 0 -2
BITMAP
70
88
88
88
78
08
70
ENDCHAR
STARTCHAR h
ENCODING -1
SWIDTH 480 0
DWIDTH 6 0
BBX 5 7 0 0
BITMAP
80
80
F0
88
88
88
88
ENDCHAR
STARTCHAR i
ENCODING -1
SWIDTH 480 0
DWIDTH 6 0
BBX 3 7 1 0
BITMAP
40
00
C0
40
40
40
E0
ENDCHAR
STARTCHAR j
ENCODING -1
SWIDTH 480 0
DWIDTH 6 0
BBX 4 9 1 -2
BITMAP
10
00
30
10
10
10
10
90
60
ENDCHAR
STARTCHAR k
ENCODING -1
SWIDTH 480 0
DWIDTH 6 0
BBX 5 7 0 0
BITMAP
80
80
88
90
E0
90
88
ENDCHAR
STARTCHAR l
ENCODING -1
SWIDTH 480 0
DWIDTH 6 0
BBX 3 7 1 0
BITMAP
C0
40
40
40
40
40
E0
ENDCHAR
STARTCHAR m
ENCODING -1
SWIDTH 480 0
DWIDTH 6 0
BBX 5 5 0 0
BITMAP
D0
A8
A8
A8
A8
ENDCHAR
STARTCHAR n
ENCODING -1
SWIDTH 480 0
DWIDTH 6 0
BBX 5 5 0 0
BITMAP
B0
C8
88
88
88
ENDCHAR
STARTCHAR o
ENCODING -1
SWIDTH 480 0
DWIDTH 6 0
BBX 5 5 0 0
BITMAP
70
88
88
88
70
ENDCHAR
STARTCHAR p
ENCODING -1
SWIDTH 480 0
DWIDTH 6 0
BBX 5 7 0 -2
BITMAP
F0
88
88
88
F0
80
80
ENDCHAR
STARTCHAR q
ENCODING -1
SWIDTH 480 0
DWIDTH 6 0
BBX 5 7 0 -2
BITMAP
78
88
88
88
78
08
08
ENDCHAR
STARTCHAR r
ENCODING -1
SWIDTH 480 0
DWIDTH 6 0
BBX 5 5 0 0
BITMAP
B0
C8
80
80
80
ENDCHAR
STARTCHAR s
ENCODING -1
SWIDTH 480 0
DWIDTH 6 0
BBX 5 5 0 0
BITMAP
78
80
70
08
F0
ENDCHAR
STARTCHAR t
ENCODING -1
SWIDTH 480 0
DWIDTH 6 0
BBX 5 7 0 0
BITMAP
20
20
F8
20
20
20
18
ENDCHAR
STARTCHAR u
ENCODING -1
SWIDTH 480 0
DWIDTH 6 0
BBX 5 5 0 0
BITMAP
88
88
88
98
68
ENDCHAR
STARTCHAR v
ENCODING -1
SWIDTH 480 0
DWIDTH 6 0
BBX 5 5 0 0
BITMAP
88
88
88
50
20
ENDCHAR
STARTCHAR w
ENCODING -1
SWIDTH 480 0
DWIDTH 6 0
BBX 5 5 0 0
BITMAP
88
88
A8
A8
50
ENDCHAR
STARTCHAR x
ENCODING -1
SWIDTH 480 0
DWIDTH 6 0
BBX 5 5 0 0
BITMAP
88
50
20
50
88
ENDCHAR
STARTCHAR y
ENCODING -1
SWIDTH 480 0
DWIDTH 6 0
BBX 5 7 0 -2
BITMAP
88
88
88
50
20
40
80
ENDCHAR
STARTCHAR z
ENCODING -1
SWIDTH 480 0
DWIDTH 6 0
BBX 5 5 0 0
BITMAP
F8
10
20
40
F8
ENDCHAR
STARTCHAR braceleft
ENCODING -1
SWIDTH 480 0
DWIDTH 6 0
BBX 3 9 1 -1
BITMAP
20
40
40
40
80
40
40
40
20
ENDCHAR
STARTCHAR bar
ENCODING -1
SWIDTH 480 0
DWIDTH 6 0
BBX 1 9 2 -1
BITMAP
80
80
80
80
80
80
80
80
80
ENDCHAR
STARTCHAR braceright
ENCODING -1
SWIDTH 480 0
DWIDTH 6 0
BBX 3 9 1 -1
BITMAP
80
40
40
40
20
40
40
40
80
ENDCHAR
STARTCHAR asciitilde
ENCODING -1
SWIDTH 480 0
DWIDTH 6 0
BBX 5 3 0 2
BITMAP
48
A8
90
ENDCHAR
STARTCHAR uni007F
ENCODING -1
SWIDTH 1000 0
DWIDTH 6 0
BBX 5 7 0 0
BITMAP
20
50
88
88
88
88
F8
ENDCHAR
STARTCHAR Ccedilla
ENCODING -1
SWIDTH 480 0
DWIDTH 6 0
BBX 5 9 0 -2
BITMAP
70
88
80
80
80
88
70
10
60
ENDCHAR
STARTCHAR udieresis
ENCODING -1
SWIDTH 480 0
DWIDTH 6 0
BBX 5 7 0 0
BITMAP
50
00
88
88
88
88
70
ENDCHAR
STARTCHAR eacute
ENCODING -1
SWIDTH 480 0
DWIDTH 6 0
BBX 5 8 0 0
BITMAP
10
20
00
70
88
F0
80
70
ENDCHAR
STARTCHAR acircumflex
ENCODING -1
SWIDTH 480 0
DWIDTH 6 0
BBX 5 8 0 0
BITMAP
20
50
00
70
08
78
88
78
ENDCHAR
STARTCHAR adieresis
ENCODING -1
SWIDTH 480 0
DWIDTH 6 0
BBX 5 7 0 0
BITMAP
50
00
70
08
78
88
78
ENDCHAR
STARTCHAR agrave
ENCODING -1
SWIDTH 480 0
DWIDTH 6 0
BBX 5 8 0 0
BITMAP
40
20
00
70
08
78
88
78
ENDCHAR
STARTCHAR aring
ENCODING -1
SWIDTH 480 0
DWIDTH 6 0
BBX 5 8 0 0
BITMAP
20
50
20
70
08
78
88
78
ENDCHAR
STARTCHAR ccedilla
ENCODING -1
SWIDTH 480 0
DWIDTH 6 0
BBX 5 7 0 -2
BITMAP
70
88
80
88
70
10
60
ENDCHAR
STARTCHAR ecircumflex
ENCODING -1
SWIDTH 480 0
DWIDTH 6 0
BBX 5 8 0 0
BITMAP
20
50
00
70
88
F0
80
70
ENDCHAR
STARTCHAR edieresis
ENCODING -1
SWIDTH 480 0
DWIDTH 6 0
BBX 5 7 0 0
BITMAP
50
00
70
88
F0
80
70
ENDCHAR
STARTCHAR egrave
ENCODING -1
SWIDTH 480 0
DWIDTH 6 0
BBX 5 8 0 0
BITMAP
40
20
00
70
88
F0
80
70
ENDCHAR
STARTCHAR idieresis
ENCODING -1
SWIDTH 480 0
DWIDTH 6 0
BBX 3 7 1 0
BITMAP
A0
00
C0
40
40
40
E0
ENDCHAR
STARTCHAR icircumflex
ENCODING -1
SWIDTH 480 0
DWIDTH 6 0
BBX 3 8 1 0
BITMAP
40
A0
00
C0
40
40
40
E0
ENDCHAR
STARTCHAR igrave
ENCODING -1
SWIDTH 480 0
DWIDTH 6 0
BBX 3 8 1 0
BITMAP
80
40
00
C0
40
40
40
E0
ENDCHAR
STARTCHAR Adieresis
ENCODING -1
SWIDTH 480 0
DWIDTH 6 0
BBX 5 9 0 0
BITMAP
50
00
70
88
88
F8
88
88
88
ENDCHAR
STARTCHAR Aring
ENCODING -1
SWIDTH 480 0
DWIDTH 6 0
BBX 5 10 0 0
BITMAP
20
50
20
70
88
88
F8
88
88
88
ENDCHAR
STARTCHAR Eacute
ENCODING -1
SWIDTH 480 0
DWIDTH 6 0
BBX 5 10 0 0
BITMAP
10
20
00
F8
80
80
F0
80
80
F8
ENDCHAR
STARTCHAR ae
ENCODING -1
SWIDTH 480 0
DWIDTH 6 0
BBX 5 5 0 0
BITMAP
70
28
70
A0
78
ENDCHAR
STARTCHAR AE
ENCODING -1
SWIDTH 480 0
DWIDTH 6 0
BBX 5 7 0 0
BITMAP
78
A0
A0
F0
A0
A0
B8
ENDCHAR
STARTCHAR ocircumflex
ENCODING -1
SWIDTH 480 0
DWIDTH 6 0
BBX 5 8 0 0
BITMAP
20
50
00
70
88
88
88
70
ENDCHAR
STARTCHAR odieresis
ENCODING -1
SWIDTH 480 0
DWIDTH 6 0
BBX 5 7 0 0
BITMAP
50
00
70
88
88
88
70
ENDCHAR
STARTCHAR ograve
ENCODING -1
SWIDTH 480 0
DWIDTH 6 0
BBX 5 8 0 0
BITMAP
40
20
00
70
88
88
88
70
ENDCHAR
STARTCHAR ucircumflex
ENCODING -1
SWIDTH 480 0
DWIDTH 6 0
BBX 5 8 0 0
BITMAP
20
50
00
88
88
88
88
70
ENDCHAR
STARTCHAR ugrave
ENCODING -1
SWIDTH 480 0
DWIDTH 6 0
BBX 5 8 0 0
BITMAP
40
20
00
88
88
88
88
70
ENDCHAR
STARTCHAR ydieresis
ENCODING -1
SWIDTH 480 0
DWIDTH 6 0
BBX 5 9 0 -2
BITMAP
50
00
88
88
88
50
20
40
80
ENDCHAR
STARTCHAR Odieresis
ENCODING -1
SWIDTH 480 0
DWIDTH 6 0
BBX 5 9 0 0
BITMAP
50
00
70
88
88
88
88
88
70
ENDCHAR
STARTCHAR Udieresis
ENCODING -1
SWIDTH 480 0
DWIDTH 6 0
BBX 5 9 0 0
BITMAP
50
00
88
88
88
88
88
88
70
ENDCHAR
STARTCHAR cent
ENCODING -1
SWIDTH 480 0
DWIDTH 6 0
BBX 5 7 0 -1
BITMAP
20
70
A8
A0
A8
70
20
ENDCHAR
STARTCHAR sterling
ENCODING -1
SWIDTH 480 0
DWIDTH 6 0
BBX 5 7 0 0
BITMAP
30
48
40
E0
40
48
B0
ENDCHAR
STARTCHAR yen
ENCODING -1
SWIDTH 480 0
DWIDTH 6 0
BBX 5 7 0 0
BITMAP
88
50
F8
20
F8
20
20
ENDCHAR
STARTCHAR peseta
ENCODING -1
SWIDTH 480 0
DWIDTH 6 0
BBX 5 7 0 0
BITMAP
60
50
F8
50
60
40
40
ENDCHAR
STARTCHAR florin
ENCODING -1
SWIDTH 480 0
DWIDTH 6 0
BBX 5 8 0 -1
BITMAP
10
28
20
70
20
20
A0
40
ENDCHAR
STARTCHAR aacute
ENCODING -1
SWIDTH 480 0
DWIDTH 6 0
BBX 5 8 0 0
BITMAP
10
20
00
70
08
78
88
78
ENDCHAR
STARTCHAR iacute
ENCODING -1
SWIDTH 480 0
DWIDTH 6 0
BBX 3 8 1 0
BITMAP
20
40
00
C0
40
40
40
E0
ENDCHAR
STARTCHAR oacute
ENCODING -1
SWIDTH 480 0
DWIDTH 6 0
BBX 5 8 0 0
BITMAP
10
20
00
70
88
88
88
70
ENDCHAR
STARTCHAR uacute
ENCODING -1
SWIDTH 480 0
DWIDTH 6 0
BBX 5 8 0 0
BITMAP
10
20
00
88
88
88
88
70
ENDCHAR
STARTCHAR ntilde
ENCODING -1
SWIDTH 480 0
DWIDTH 6 0
BBX 5 8 0 0
BITMAP
68
B0
00
B0
C8
88
88
88
ENDCHAR
STARTCHAR Ntilde
ENCODING -1
SWIDTH 480 0
DWIDTH 6 0
BBX 5 10 0 0
BITMAP
68
B0
00
88
88
C8
A8
98
88
88
ENDCHAR
STARTCHAR ordfeminine
ENCODING -1
SWIDTH 480 0
DWIDTH 6 0
BBX 3 5 1 4
BITMAP
60
A0
60
00
E0
ENDCHAR
STARTCHAR ordmasculine
ENCODING -1
SWIDTH 480 0
DWIDTH 6 0
BBX 3 5 1 5
BITMAP
40
A0
40
00
E0
ENDCHAR
STARTCHAR questiondown
ENCODING -1
SWIDTH 480 0
DWIDTH 6 0
BBX 5 7 0 0
BITMAP
20
00
20
20
40
88
70
ENDCHAR
STARTCHAR revlogicalnot
ENCODING -1
SWIDTH 480 0
DWIDTH 6 0
BBX 5 3 0 1
BITMAP
F8
80
80
ENDCHAR
STARTCHAR logicalnot
ENCODING -1
SWIDTH 480 0
DWIDTH 6 0
BBX 5 3 0 1
BITMAP
F8
08
08
ENDCHAR
STARTCHAR onehalf
ENCODING -1
SWIDTH 480 0
DWIDTH 6 0
BBX 5 10 0 0
BITMAP
40
C0
40
40
50
28
08
10
20
38
ENDCHAR
STARTCHAR onequarter
ENCODING -1
SWIDTH 480 0
DWIDTH 6 0
BBX 5 10 0 0
BITMAP
40
C0
40
40
50
30
50
78
10
10
ENDCHAR
STARTCHAR exclamdown
ENCODING -1
SWIDTH 480 0
DWIDTH 6 0
BBX 1 7 2 0
BITMAP
80
00
80
80
80
80
80
ENDCHAR
STARTCHAR guillemotleft
ENCODING -1
SWIDTH 480 0
DWIDTH 6 0
BBX 5 5 0 0
BITMAP
28
50
A0
50
28
ENDCHAR
STARTCHAR guillemotright
ENCODING -1
SWIDTH 480 0
DWIDTH 6 0
BBX 5 5 0 0
BITMAP
A0
50
28
50
A0
ENDCHAR
STARTCHAR ltshade
ENCODING -1
SWIDTH 480 0
DWIDTH 6 0
BBX 6 11 0 -1
BITMAP
A8
00
54
00
A8
00
54
00
A8
00
54
ENDCHAR
STARTCHAR shade
ENCODING -1
SWIDTH 480 0
DWIDTH 6 0
BBX 6 12 0 -2
BITMAP
A8
54
A8
54
A8
54
A8
54
A8
54
A8
54
ENDCHAR
STARTCHAR dkshade
ENCODING -1
SWIDTH 480 0
DWIDTH 6 0
BBX 6 12 0 -2
BITMAP
54
FC
A8
FC
54
FC
A8
FC
54
FC
A8
FC
ENDCHAR
STARTCHAR SF110000
ENCODING -1
SWIDTH 480 0
DWIDTH 6 0
BBX 1 12 2 -2
BITMAP
80
80
80
80
80
80
80
80
80
80
80
80
ENDCHAR
STARTCHAR SF090000
ENCODING -1
SWIDTH 480 0
DWIDTH 6 0
BBX 3 12 0 -2
BITMAP
20
20
20
20
20
20
E0
20
20
20
20
20
ENDCHAR
STARTCHAR SF190000
ENCODING -1
SWIDTH 480 0
DWIDTH 6 0
BBX 3 12 0 -2
BITMAP
20
20
20
20
20
E0
20
E0
20
20
20
20
ENDCHAR
STARTCHAR SF200000
ENCODING -1
SWIDTH 480 0
DWIDTH 6 0
BBX 4 12 0 -2
BITMAP
50
50
50
50
50
50
D0
50
50
50
50
50
ENDCHAR
STARTCHAR SF210000
ENCODING -1
SWIDTH 480 0
DWIDTH 6 0
BBX 4 6 0 -2
BITMAP
F0
50
50
50
50
50
ENDCHAR
STARTCHAR SF220000
ENCODING -1
SWIDTH 480 0
DWIDTH 6 0
BBX 3 7 0 -2
BITMAP
E0
20
E0
20
20
20
20
ENDCHAR
STARTCHAR SF230000
ENCODING -1
SWIDTH 480 0
DWIDTH 6 0
BBX 4 12 0 -2
BITMAP
50
50
50
50
50
D0
10
D0
50
50
50
50
ENDCHAR
STARTCHAR SF240000
ENCODING -1
SWIDTH 480 0
DWIDTH 6 0
BBX 3 12 1 -2
BITMAP
A0
A0
A0
A0
A0
A0
A0
A0
A0
A0
A0
A0
ENDCHAR
STARTCHAR SF250000
ENCODING -1
SWIDTH 480 0
DWIDTH 6 0
BBX 4 7 0 -2
BITMAP
F0
10
D0
50
50
50
50
ENDCHAR
STARTCHAR SF260000
ENCODING -1
SWIDTH 480 0
DWIDTH 6 0
BBX 4 8 0 2
BITMAP
50
50
50
50
50
D0
10
F0
ENDCHAR
STARTCHAR SF270000
ENCODING -1
SWIDTH 480 0
DWIDTH 6 0
BBX 4 7 0 3
BITMAP
50
50
50
50
50
50
F0
ENDCHAR
STARTCHAR SF280000
ENCODING -1
SWIDTH 480 0
DWIDTH 6 0
BBX 3 8 0 2
BITMAP
20
20
20
20
20
E0
20
E0
ENDCHAR
STARTCHAR SF030000
ENCODING -1
SWIDTH 480 0
DWIDTH 6 0
BBX 3 6 0 -2
BITMAP
E0
20
20
20
20
20
ENDCHAR
STARTCHAR SF020000
ENCODING -1
SWIDTH 480 0
DWIDTH 6 0
BBX 4 7 2 3
BITMAP
80
80
80
80
80
80
F0
ENDCHAR
STARTCHAR SF070000
ENCODING -1
SWIDTH 480 0
DWIDTH 6 0
BBX 6 7 0 3
BITMAP
20
20
20
20
20
20
FC
ENDCHAR
STARTCHAR SF060000
ENCODING -1
SWIDTH 480 0
DWIDTH 6 0
BBX 6 6 0 -2
BITMAP
FC
20
20
20
20
20
ENDCHAR
STARTCHAR SF080000
ENCODING -1
SWIDTH 480 0
DWIDTH 6 0
BBX 4 12 2 -2
BITMAP
80
80
80
80
80
80
F0
80
80
80
80
80
ENDCHAR
STARTCHAR SF100000
ENCODING -1
SWIDTH 480 0
DWIDTH 6 0
BBX 6 1 0 3
BITMAP
FC
ENDCHAR
STARTCHAR SF050000
ENCODING -1
SWIDTH 480 0
DWIDTH 6 0
BBX 6 12 0 -2
BITMAP
20
20
20
20
20
20
FC
20
20
20
20
20
ENDCHAR
STARTCHAR SF360000
ENCODING -1
SWIDTH 480 0
DWIDTH 6 0
BBX 4 12 2 -2
BITMAP
80
80
80
80
80
F0
80
F0
80
80
80
80
ENDCHAR
STARTCHAR SF370000
ENCODING -1
SWIDTH 480 0
DWIDTH 6 0
BBX 5 12 1 -2
BITMAP
A0
A0
A0
A0
A0
A0
B8
A0
A0
A0
A0
A0
ENDCHAR
STARTCHAR SF380000
ENCODING -1
SWIDTH 480 0
DWIDTH 6 0
BBX 5 8 1 2
BITMAP
A0
A0
A0
A0
A0
B8
80
F8
ENDCHAR
STARTCHAR SF390000
ENCODING -1
SWIDTH 480 0
DWIDTH 6 0
BBX 5 7 1 -2
BITMAP
F8
80
B8
A0
A0
A0
A0
ENDCHAR
STARTCHAR SF400000
ENCODING -1
SWIDTH 480 0
DWIDTH 6 0
BBX 6 8 0 2
BITMAP
50
50
50
50
50
DC
00
FC
ENDCHAR
STARTCHAR SF410000
ENCODING -1
SWIDTH 480 0
DWIDTH 6 0
BBX 6 7 0 -2
BITMAP
FC
00
DC
50
50
50
50
ENDCHAR
STARTCHAR SF420000
ENCODING -1
SWIDTH 480 0
DWIDTH 6 0
BBX 5 12 1 -2
BITMAP
A0
A0
A0
A0
A0
B8
80
B8
A0
A0
A0
A0
ENDCHAR
STARTCHAR SF430000
ENCODING -1
SWIDTH 480 0
DWIDTH 6 0
BBX 6 3 0 2
BITMAP
FC
00
FC
ENDCHAR
STARTCHAR SF440000
ENCODING -1
SWIDTH 480 0
DWIDTH 6 0
BBX 6 12 0 -2
BITMAP
50
50
50
50
50
DC
00
DC
50
50
50
50
ENDCHAR
STARTCHAR SF450000
ENCODING -1
SWIDTH 480 0
DWIDTH 6 0
BBX 6 8 0 2
BITMAP
20
20
20
20
20
FC
00
FC
ENDCHAR
STARTCHAR SF460000
ENCODING -1
SWIDTH 480 0
DWIDTH 6 0
BBX 6 7 0 3
BITMAP
50
50
50
50
50
50
FC
ENDCHAR
STARTCHAR SF470000
ENCODING -1
SWIDTH 480 0
DWIDTH 6 0
BBX 6 7 0 -2
BITMAP
FC
00
FC
20
20
20
20
ENDCHAR
STARTCHAR SF480000
ENCODING -1
SWIDTH 480 0
DWIDTH 6 0
BBX 6 6 0 -2
BITMAP
FC
50
50
50
50
50
ENDCHAR
STARTCHAR SF490000
ENCODING -1
SWIDTH 480 0
DWIDTH 6 0
BBX 5 7 1 3
BITMAP
A0
A0
A0
A0
A0
A0
F8
ENDCHAR
STARTCHAR SF500000
ENCODING -1
SWIDTH 480 0
DWIDTH 6 0
BBX 4 8 2 2
BITMAP
80
80
80
80
80
F0
80
F0
ENDCHAR
STARTCHAR SF510000
ENCODING -1
SWIDTH 480 0
DWIDTH 6 0
BBX 4 7 2 -2
BITMAP
F0
80
F0
80
80
80
80
ENDCHAR
STARTCHAR SF520000
ENCODING -1
SWIDTH 480 0
DWIDTH 6 0
BBX 5 6 1 -2
BITMAP
F8
A0
A0
A0
A0
A0
ENDCHAR
STARTCHAR SF530000
ENCODING -1
SWIDTH 480 0
DWIDTH 6 0
BBX 6 12 0 -2
BITMAP
50
50
50
50
50
50
FC
50
50
50
50
50
ENDCHAR
STARTCHAR SF540000
ENCODING -1
SWIDTH 480 0
DWIDTH 6 0
BBX 6 12 0 -2
BITMAP
20
20
20
20
20
FC
20
FC
20
20
20
20
ENDCHAR
STARTCHAR SF040000
ENCODING -1
SWIDTH 480 0
DWIDTH 6 0
BBX 3 7 0 3
BITMAP
20
20
20
20
20
20
E0
ENDCHAR
STARTCHAR SF010000
ENCODING -1
SWIDTH 480 0
DWIDTH 6 0
BBX 4 6 2 -2
BITMAP
F0
80
80
80
80
80
ENDCHAR
STARTCHAR block
ENCODING -1
SWIDTH 480 0
DWIDTH 6 0
BBX 6 12 0 -2
BITMAP
FC
FC
FC
FC
FC
FC
FC
FC
FC
FC
FC
FC
ENDCHAR
STARTCHAR dnblock
ENCODING -1
SWIDTH 480 0
DWIDTH 6 0
BBX 6 6 0 -2
BITMAP
FC
FC
FC
FC
FC
FC
ENDCHAR
STARTCHAR lfblock
ENCODING -1
SWIDTH 480 0
DWIDTH 6 0
BBX 3 12 0 -2
BITMAP
E0
E0
E0
E0
E0
E0
E0
E0
E0
E0
E0
E0
ENDCHAR
STARTCHAR rtblock
ENCODING -1
SWIDTH 480 0
DWIDTH 6 0
BBX 3 12 3 -2
BITMAP
E0
E0
E0
E0
E0
E0
E0
E0
E0
E0
E0
E0
ENDCHAR
STARTCHAR upblock
ENCODING -1
SWIDTH 480 0
DWIDTH 6 0
BBX 6 6 0 4
BITMAP
FC
FC
FC
FC
FC
FC
ENDCHAR
STARTCHAR alpha
ENCODING -1
SWIDTH 480 0
DWIDTH 6 0
BBX 5 5 0 0
BITMAP
68
98
88
98
68
ENDCHAR
STARTCHAR germandbls
ENCODING -1
SWIDTH 480 0
DWIDTH 6 0
BBX 5 7 0 0
BITMAP
70
88
90
A0
90
88
B0
ENDCHAR
STARTCHAR Gamma
ENCODING -1
SWIDTH 480 0
DWIDTH 6 0
BBX 5 7 0 0
BITMAP
F8
80
80
80
80
80
80
ENDCHAR
STARTCHAR pi
ENCODING -1
SWIDTH 480 0
DWIDTH 6 0
BBX 5 5 0 0
BITMAP
F8
50
50
50
50
ENDCHAR
STARTCHAR Sigma
ENCODING -1
SWIDTH 480 0
DWIDTH 6 0
BBX 5 7 0 0
BITMAP
F8
40
20
10
20
40
F8
ENDCHAR
STARTCHAR sigma
ENCODING -1
SWIDTH 480 0
DWIDTH 6 0
BBX 5 5 0 0
BITMAP
78
90
88
88
70
ENDCHAR
STARTCHAR uni00B5
ENCODING -1
SWIDTH 1000 0
DWIDTH 6 0
BBX 5 7 0 -2
BITMAP
88
88
88
98
E8
80
80
ENDCHAR
STARTCHAR tau
ENCODING -1
SWIDTH 480 0
DWIDTH 6 0
BBX 5 5 0 0
BITMAP
F8
20
20
28
10
ENDCHAR
STARTCHAR Phi
ENCODING -1
SWIDTH 480 0
DWIDTH 6 0
BBX 5 7 0 0
BITMAP
20
70
A8
A8
A8
70
20
ENDCHAR
STARTCHAR Theta
ENCODING -1
SWIDTH 480 0
DWIDTH 6 0
BBX 5 7 0 0
BITMAP
70
88
88
F8
88
88
70
ENDCHAR
STARTCHAR Omega
ENCODING -1
SWIDTH 480 0
DWIDTH 6 0
BBX 5 7 0 0
BITMAP
70
88
88
88
88
50
D8
ENDCHAR
STARTCHAR delta
ENCODING -1
SWIDTH 480 0
DWIDTH 6 0
BBX 5 7 0 0
BITMAP
70
80
70
88
88
88
70
ENDCHAR
STARTCHAR infinity
ENCODING -1
SWIDTH 480 0
DWIDTH 6 0
BBX 5 4 0 1
BITMAP
50
A8
A8
50
ENDCHAR
STARTCHAR phi
ENCODING -1
SWIDTH 480 0
DWIDTH 6 0
BBX 5 7 0 -2
BITMAP
10
A8
A8
A8
70
20
20
ENDCHAR
STARTCHAR epsilon
ENCODING -1
SWIDTH 480 0
DWIDTH 6 0
BBX 5 5 0 0
BITMAP
70
88
60
88
70
ENDCHAR
STARTCHAR intersection
ENCODING -1
SWIDTH 480 0
DWIDTH 6 0
BBX 5 5 0 0
BITMAP
70
88
88
88
88
ENDCHAR
STARTCHAR equivalence
ENCODING -1
SWIDTH 480 0
DWIDTH 6 0
BBX 5 5 0 1
BITMAP
F8
00
F8
00
F8
ENDCHAR
STARTCHAR plusminus
ENCODING -1
SWIDTH 480 0
DWIDTH 6 0
BBX 5 7 0 0
BITMAP
20
20
F8
20
20
00
F8
ENDCHAR
STARTCHAR greaterequal
ENCODING -1
SWIDTH 480 0
DWIDTH 6 0
BBX 5 7 0 0
BITMAP
C0
30
08
30
C0
00
F8
ENDCHAR
STARTCHAR lessequal
ENCODING -1
SWIDTH 480 0
DWIDTH 6 0
BBX 5 7 0 0
BITMAP
18
60
80
60
18
00
F8
ENDCHAR
STARTCHAR integraltp
ENCODING -1
SWIDTH 480 0
DWIDTH 6 0
BBX 3 11 2 -2
BITMAP
40
A0
80
80
80
80
80
80
80
80
80
ENDCHAR
STARTCHAR integralbt
ENCODING -1
SWIDTH 480 0
DWIDTH 6 0
BBX 3 11 0 -1
BITMAP
20
20
20
20
20
20
20
20
20
A0
40
ENDCHAR
STARTCHAR divide
ENCODING -1
SWIDTH 480 0
DWIDTH 6 0
BBX 5 5 0 1
BITMAP
20
00
F8
00
20
ENDCHAR
STARTCHAR approxequal
ENCODING -1
SWIDTH 480 0
DWIDTH 6 0
BBX 5 6 0 0
BITMAP
48
A8
90
48
A8
90
ENDCHAR
STARTCHAR degree
ENCODING -1
SWIDTH 480 0
DWIDTH 6 0
BBX 4 4 1 5
BITMAP
60
90
90
60
ENDCHAR
STARTCHAR uni2219
ENCODING -1
SWIDTH 1000 0
DWIDTH 6 0
BBX 2 2 2 3
BITMAP
C0
C0
ENDCHAR
STARTCHAR periodcentered
ENCODING -1
SWIDTH 480 0
DWIDTH 6 0
BBX 2 2 2 3
BITMAP
C0
C0
ENDCHAR
STARTCHAR radical
ENCODING -1
SWIDTH 480 0
DWIDTH 6 0
BBX 6 11 0 -2
BITMAP
0C
08
08
08
08
10
D0
50
50
20
20
ENDCHAR
STARTCHAR nsuperior
ENCODING -1
SWIDTH 480 0
DWIDTH 6 0
BBX 3 4 1 5
BITMAP
C0
A0
A0
A0
ENDCHAR
STARTCHAR twosuperior
ENCODING -1
SWIDTH 480 0
DWIDTH 6 0
BBX 3 5 1 5
BITMAP
40
A0
20
40
E0
ENDCHAR
STARTCHAR filledbox
ENCODING -1
SWIDTH 480 0
DWIDTH 6 0
BBX 5 5 0 0
BITMAP
F8
F8
F8
F8
F8
ENDCHAR
ENDFONT
